<svg width="32" height="32" viewBox="0 0 32 32" fill="none" xmlns="http://www.w3.org/2000/svg">
<path d="M5.8747 19.3643L10.4107 14.8283L14.1814 18.6003L18.3907 14.391L16 12.0003H22.6667V18.667L20.276 16.2763L14.1814 22.371L10.4107 18.6003L7.1107 21.899C8.60858 24.1535 10.9075 25.7542 13.5417 26.3768C16.1758 26.9994 18.9481 26.5973 21.2969 25.2519C23.6456 23.9066 25.395 21.7187 26.1906 19.1315C26.9862 16.5444 26.7686 13.7515 25.5817 11.3189C24.3948 8.88628 22.3275 6.99583 19.7988 6.03065C17.27 5.06547 14.4688 5.09775 11.9629 6.12095C9.45707 7.14415 7.4339 9.08173 6.30341 11.5411C5.17292 14.0004 5.01966 16.7975 5.8747 19.3657V19.3643ZM3.82403 21.4417L3.8107 21.4283L3.81603 21.423C3.05594 19.7163 2.6643 17.8686 2.6667 16.0003C2.6667 8.63633 8.63603 2.66699 16 2.66699C23.364 2.66699 29.3334 8.63633 29.3334 16.0003C29.3334 23.3643 23.364 29.3337 16 29.3337C10.5734 29.3337 5.9067 26.0937 3.82403 21.4417Z" fill="white"/>
</svg>
